:FULLY-SPECIFIED
:FORCE-ALL-JOINTS-BE-3DOF
:DEGREES
2242
root -0.719421 13.7765 -16.6124 911.226 -26.2109 168.851
lfemur 11.3107 -0.675134 -15.1162
ltibia 33.5592 0 0
lfoot -24.126 37.0186 0
ltoes -43.9563 0 0
rfemur -71.8939 -23.1196 8.86375
rtibia 73.2169 0 0
rfoot -6.07347 14.5481 0
rtoes 3.81415 0 0
lowerback 9.1281 1.99617 -13.6681
upperback -2.90361 0.62165 -2.03496
thorax -8.50302 0.875128 5.38341
lowerneck 1.09837 -12.1983 -12.5977
upperneck 4.71044 -16.9914 10.6033
head 3.19004 -8.53482 4.47547
lclavicle -1.19374e-14 -1.56548e-14 0
lhumerus -71.1058 -17.7533 104.313
lradius 102.95 0 0
lwrist 61.5712 0 0
lhand -11.0334 423.317 0
lfingers 7.12502 0 0
lthumb 14.9888 -465.041 0
rclavicle -1.19374e-14 -1.56548e-14 0
rhumerus 50.0827 -9.85295 -59.0108
rradius 15.2188 0 0
rwrist 36.1257 0 0
rhand -20.1435 -402.903 0
rfingers 7.12502 0 0
rthumb 6.20713 287.137 0
2243
root -0.726683 13.7753 -16.6209 911.387 -26.1342 168.791
lfemur 11.412 -0.732123 -15.2203
ltibia 33.1626 0 0
lfoot -23.9817 37.0185 0
ltoes -44.1506 0 0
rfemur -72.1385 -23.1915 8.94479
rtibia 73.5318 0 0
rfoot -6.26713 14.56 0
rtoes 3.95415 0 0
lowerback 9.03624 1.99367 -13.6819
upperback -2.93063 0.625742 -2.05612
thorax -8.48113 0.876193 5.36772
lowerneck 1.05427 -12.1875 -12.5493
upperneck 4.70692 -16.9697 10.5823
head 3.19 -8.52248 4.46156
lclavicle -1.28283e-14 -1.60022e-14 0
lhumerus -70.765 -17.8496 104.253
lradius 102.755 0 0
lwrist 61.46 0 0
lhand -11.1472 422.966 0
lfingers 7.12502 0 0
lthumb 14.8791 -463.513 0
rclavicle -1.28283e-14 -1.60022e-14 0
rhumerus 49.8857 -9.81399 -58.972
rradius 15.5809 0 0
rwrist 35.755 0 0
rhand -20.0357 -402.841 0
rfingers 7.12502 0 0
rthumb 6.30998 287.217 0
2244
root -0.733525 13.7738 -16.6302 911.539 -26.0613 168.733
lfemur 11.5158 -0.784168 -15.316
ltibia 32.781 0 0
lfoot -23.8439 37.0191 0
ltoes -44.3373 0 0
rfemur -72.3713 -23.2599 9.02144
rtibia 73.8322 0 0
rfoot -6.45319 14.5726 0
rtoes 4.08588 0 0
lowerback 8.94917 1.9924 -13.6959
upperback -2.95599 0.631005 -2.07612
thorax -8.46042 0.877916 5.35315
lowerneck 1.01316 -12.178 -12.5039
upperneck 4.70236 -16.9501 10.5628
head 3.18958 -8.51125 4.44858
lclavicle -1.37088e-14 -1.62503e-14 0
lhumerus -70.4546 -17.9394 104.2
lradius 102.576 0 0
lwrist 61.3634 0 0
lhand -11.2547 422.625 0
lfingers 7.12502 0 0
lthumb 14.7754 -461.895 0
rclavicle -1.37088e-14 -1.62503e-14 0
rhumerus 49.7069 -9.77903 -58.9306
rradius 15.9114 0 0
rwrist 35.4131 0 0
rhand -19.9381 -402.784 0
rfingers 7.12502 0 0
rthumb 6.40307 287.291 0
2245
root -0.739887 13.772 -16.6405 911.682 -25.9928 168.68
lfemur 11.6229 -0.831008 -15.4024
ltibia 32.4154 0 0
lfoot -23.7133 37.0207 0
ltoes -44.516 0 0
rfemur -72.5916 -23.3248 9.09321
rtibia 74.1165 0 0
rfoot -6.63108 14.5865 0
rtoes 4.20863 0 0
lowerback 8.86719 1.99249 -13.7101
upperback -2.97961 0.63756 -2.09494
thorax -8.44099 0.880368 5.33972
lowerneck 0.975415 -12.1701 -12.4618
upperneck 4.69652 -16.9331 10.545
head 3.18874 -8.50134 4.43665
lclavicle -1.45774e-14 -1.6393e-14 0
lhumerus -70.179 -18.0219 104.154
lradius 102.416 0 0
lwrist 61.2836 0 0
lhand -11.355 422.295 0
lfingers 7.12502 0 0
lthumb 14.6787 -460.187 0
rclavicle -1.45774e-14 -1.6393e-14 0
rhumerus 49.5492 -9.74888 -58.8863
rradius 16.2054 0 0
rwrist 35.1041 0 0
rhand -19.8523 -402.732 0
rfingers 7.12502 0 0
rthumb 6.48489 287.357 0
2246
root -0.74571 13.7699 -16.652 911.816 -25.9292 168.629
lfemur 11.7339 -0.87238 -15.4787
ltibia 32.0667 0 0
lfoot -23.5906 37.0236 0
ltoes -44.6861 0 0
rfemur -72.7985 -23.3863 9.1596
rtibia 74.3835 0 0
rfoot -6.80023 14.6019 0
rtoes 4.32173 0 0
lowerback 8.7906 1.99405 -13.7247
upperback -3.00141 0.645528 -2.11257
thorax -8.42298 0.883617 5.32749
lowerneck 0.941426 -12.1639 -12.4235
upperneck 4.68919 -16.9188 10.5294
head 3.1874 -8.49294 4.42589
lclavicle -1.54329e-14 -1.6424e-14 0
lhumerus -69.9429 -18.0962 104.117
lradius 102.276 0 0
lwrist 61.223 0 0
lhand -11.4473 421.976 0
lfingers 7.12502 0 0
lthumb 14.5897 -458.392 0
rclavicle -1.54329e-14 -1.6424e-14 0
rhumerus 49.4154 -9.72437 -58.8385
rradius 16.458 0 0
rwrist 34.8323 0 0
rhand -19.7799 -402.687 0
rfingers 7.12502 0 0
rthumb 6.55391 287.415 0
2247
root -0.750934 13.7674 -16.665 911.94 -25.8712 168.583
lfemur 11.8493 -0.908021 -15.5439
ltibia 31.7359 0 0
lfoot -23.4764 37.0282 0
ltoes -44.8472 0 0
rfemur -72.9915 -23.4444 9.22012
rtibia 74.6317 0 0
rfoot -6.96006 14.6192 0
rtoes 4.42449 0 0
lowerback 8.71972 1.99722 -13.7395
upperback -3.02134 0.65503 -2.12898
thorax -8.40651 0.887736 5.31648
lowerneck 0.91158 -12.1599 -12.3893
upperneck 4.68012 -16.9079 10.5161
head 3.18551 -8.48625 4.41644
lclavicle -1.62741e-14 -1.6337e-14 0
lhumerus -69.7508 -18.1614 104.09
lradius 102.159 0 0
lwrist 61.1839 0 0
lhand -11.5305 421.672 0
lfingers 7.12502 0 0
lthumb 14.5095 -456.509 0
rclavicle -1.62741e-14 -1.6337e-14 0
rhumerus 49.3084 -9.70632 -58.7868
rradius 16.6646 0 0
rwrist 34.6019 0 0
rhand -19.7225 -402.649 0
rfingers 7.12502 0 0
rthumb 6.60863 287.463 0
2248
root -0.755499 13.7644 -16.6797 912.054 -25.8193 168.54
lfemur 11.97 -0.937669 -15.5973
ltibia 31.4239 0 0
lfoot -23.3714 37.0346 0
ltoes -44.9989 0 0
rfemur -73.1696 -23.4991 9.27428
rtibia 74.8598 0 0
rfoot -7.11001 14.6386 0
rtoes 4.51622 0 0
lowerback 8.65484 2.00213 -13.7549
upperback -3.0393 0.666186 -2.14414
thorax -8.39169 0.892792 5.30674
lowerneck 0.886262 -12.1582 -12.3595
upperneck 4.66911 -16.9005 10.5053
head 3.183 -8.48146 4.40843
lclavicle -1.70995e-14 -1.6126e-14 0
lhumerus -69.6071 -18.2166 104.072
lradius 102.067 0 0
lwrist 61.1686 0 0
lhand -11.6037 421.383 0
lfingers 7.12502 0 0
lthumb 14.439 -454.539 0
rclavicle -1.70995e-14 -1.6126e-14 0
rhumerus 49.2308 -9.69554 -58.7307
rradius 16.8203 0 0
rwrist 34.4172 0 0
rhand -19.6817 -402.618 0
rfingers 7.12502 0 0
rthumb 6.64751 287.501 0
2249
root -0.759347 13.761 -16.6963 912.158 -25.7741 168.502
lfemur 12.0964 -0.961062 -15.6379
ltibia 31.1316 0 0
lfoot -23.2762 37.0432 0
ltoes -45.1408 0 0
rfemur -73.3321 -23.5506 9.32159
rtibia 75.0664 0 0
rfoot -7.24949 14.6607 0
rtoes 4.59622 0 0
lowerback 8.59627 2.0089 -13.7707
upperback -3.05524 0.679117 -2.15804
thorax -8.37865 0.898858 5.29832
lowerneck 0.865858 -12.1591 -12.3347
upperneck 4.65591 -16.8972 10.4973
head 3.17981 -8.47876 4.40197
lclavicle -1.7908e-14 -1.57845e-14 0
lhumerus -69.5164 -18.2609 104.067
lradius 102.004 0 0
lwrist 61.1793 0 0
lhand -11.6659 421.111 0
lfingers 7.12502 0 0
lthumb 14.379 -452.483 0
rclavicle -1.7908e-14 -1.57845e-14 0
rhumerus 49.1857 -9.69285 -58.6697
rradius 16.9203 0 0
rwrist 34.2824 0 0
rhand -19.6591 -402.596 0
rfingers 7.12502 0 0
rthumb 6.66905 287.528 0
2250
root -0.762418 13.757 -16.715 912.251 -25.7362 168.467
lfemur 12.2292 -0.977936 -15.6649
ltibia 30.8599 0 0
lfoot -23.1916 37.0542 0
ltoes -45.2722 0 0
rfemur -73.4784 -23.5987 9.36157
rtibia 75.25 0 0
rfoot -7.37795 14.6856 0
rtoes 4.66382 0 0
lowerback 8.54431 2.01765 -13.7871
upperback -3.06907 0.693944 -2.17064
thorax -8.3675 0.906003 5.29124
lowerneck 0.850755 -12.1629 -12.3151
upperneck 4.64031 -16.8982 10.4924
head 3.17588 -8.47836 4.3972
lclavicle -1.86982e-14 -1.53064e-14 0
lhumerus -69.4832 -18.2935 104.073
lradius 101.97 0 0
lwrist 61.2185 0 0
lhand -11.7163 420.857 0
lfingers 7.12502 0 0
lthumb 14.3304 -450.343 0
rclavicle -1.86982e-14 -1.53064e-14 0
rhumerus 49.1757 -9.69908 -58.6033
rradius 16.9598 0 0
rwrist 34.2018 0 0
rhand -19.6562 -402.583 0
rfingers 7.12502 0 0
rthumb 6.67172 287.542 0
